<svg width="32" height="32" viewBox="0 0 32 32" fill="none" xmlns="http://www.w3.org/2000/svg">
<path opacity="0.4" d="M29.44 16.318C29.44 15.325 29.351 14.371 29.185 13.454H16V18.876H23.535C23.204 20.62 22.211 22.096 20.722 23.089V26.614H25.266C27.913 24.17 29.44 20.581 29.44 16.318Z" fill="black"/>
<path d="M16 30C19.78 30 22.949 28.753 25.265 26.615L20.721 23.09C19.474 23.93 17.883 24.4389 15.999 24.4389C12.359 24.4389 9.266 21.983 8.159 18.674L5.442 20.764L3.501 22.2889C5.805 26.858 10.526 30.002 15.999 30.002L16 30Z" fill="black"/>
<path opacity="0.4" d="M8.16 18.66C7.88 17.82 7.715 16.929 7.715 16C7.715 15.071 7.88 14.18 8.16 13.34V9.72498H3.502C2.547 11.609 2 13.734 2 16C2 18.266 2.547 20.391 3.502 22.275H6.834L8.161 18.66H8.16Z" fill="black"/>
<path d="M16 7.575C18.062 7.575 19.895 8.288 21.358 9.662L25.367 5.653C22.936 3.388 19.78 2 16 2C10.527 2 5.805 5.144 3.502 9.725L8.16 13.34C9.267 10.031 12.36 7.575 16 7.575Z" fill="black"/>
</svg>
